<svg xmlns="http://www.w3.org/2000/svg">
	<defs>
		<style>
		.img { display: none }
		.img:target { display: inline }
		</style>
	</defs>

  <svg viewBox="0 0 40 61" fill="none" xmlns="http://www.w3.org/2000/svg">
		<g id="logo" class="img">
			<rect y="35.8643" width="35.5224" height="7.46268" rx="3.73134" transform="rotate(-45 0 35.8643)" fill="white"/>
			<rect x="32.5376" y="44.7761" width="44.7761" height="7.46268" rx="3.73134" transform="rotate(-90 32.5376 44.7761)" fill="white"/>
			<rect x="32.5376" y="59.7015" width="11.194" height="7.46268" rx="3.73134" transform="rotate(-90 32.5376 59.7015)" fill="white"/>
			<rect x="5.27686" y="30.597" width="35.5224" height="7.46268" rx="3.73134" transform="rotate(45 5.27686 30.597)" fill="white"/>
			<path d="M11.3433 35.9701C11.9209 38.099 14.9566 39.3733 13.2836 39.4776C11.6106 39.5819 9.55225 37.8404 9.55225 35.8209C9.55225 33.8013 11.2228 32.1642 13.2836 32.1642C15.3444 32.1642 11.3433 33.9506 11.3433 35.9701Z" fill="white"/>
		</g>
	</svg>

	<svg viewBox="0 0 40 40" fill="none" xmlns="http://www.w3.org/2000/svg">
		<g id="services" class="img">	
			<path d="M33.75 21.875V26.25H31.25V27.5H34.375C34.7208 27.5 35 27.2198 35 26.875V22.1338L36.0669 21.0669C36.3113 20.8224 36.3113 20.4276 36.0669 20.1831L35 19.1162V14.375C35 14.0302 34.7208 13.75 34.375 13.75H31.25V15H33.75V19.375C33.75 19.5407 33.8156 19.7 33.9331 19.8169L34.7412 20.625L33.9331 21.4331C33.8156 21.55 33.75 21.7093 33.75 21.875Z" fill="white"/>
			<path d="M0 4.375V35.625C0 35.9698 0.279236 36.25 0.625 36.25H10V35H1.25V10H10V8.75H1.25V5H10V3.75H0.625C0.279236 3.75 0 4.03015 0 4.375Z" fill="white"/>
			<path d="M2.5 6.25H3.75V7.5H2.5V6.25Z" fill="white"/>
			<path d="M5 6.25H6.25V7.5H5V6.25Z" fill="white"/>
			<path d="M7.5 6.25H8.75V7.5H7.5V6.25Z" fill="white"/>
			<path d="M39.375 3.75H28.75V5H38.75V8.75H30V10H38.75V35H30V36.25H39.375C39.7208 36.25 40 35.9698 40 35.625V4.375C40 4.03015 39.7208 3.75 39.375 3.75Z" fill="white"/>
			<path d="M33.75 6.25H37.5V7.5H33.75V6.25Z" fill="white"/>
			<path d="M6.25023 19.375V15H8.75023V13.75H5.62523C5.27947 13.75 5.00023 14.0302 5.00023 14.375V19.1162L3.93333 20.1831C3.68889 20.4276 3.68889 20.8224 3.93333 21.0669L5.00023 22.1338V26.875C5.00023 27.2198 5.27947 27.5 5.62523 27.5H8.75023V26.25H6.25023V21.875C6.25023 21.7093 6.18462 21.55 6.06712 21.4331L5.25902 20.625L6.06712 19.8169C6.18462 19.7 6.25023 19.5407 6.25023 19.375Z" fill="white"/>
			<path d="M18.125 2.5H11.875C11.5292 2.5 11.25 2.78015 11.25 3.125V36.875C11.25 37.2198 11.5292 37.5 11.875 37.5H18.125C18.4708 37.5 18.75 37.2198 18.75 36.875V3.125C18.75 2.78015 18.4708 2.5 18.125 2.5ZM12.5 36.25V3.75H17.5V5H15V6.25H17.5V8.75H16.25V10H17.5V12.5H15V13.75H17.5V16.25H16.25V17.5H17.5V20H15V21.25H17.5V23.75H16.25V25H17.5V27.5H15V28.75H17.5V31.25H16.25V32.5H17.5V36.25H12.5Z" fill="white"/>
			<path d="M13.75 33.75H15V35H13.75V33.75Z" fill="white"/>
			<path d="M28.7161 9.79797L26.3724 2.92297C26.2869 2.66998 26.0489 2.5 25.7812 2.5H24.2188C23.9511 2.5 23.7131 2.66998 23.6276 2.92297L21.2839 9.79797C21.2631 9.85809 21.2555 9.92004 21.2537 9.98199C21.2531 9.98871 21.25 9.9939 21.25 10V36.25C21.25 36.9394 21.8106 37.5 22.5 37.5H27.5C28.1894 37.5 28.75 36.9394 28.75 36.25V10C28.75 9.9939 28.7469 9.98871 28.7463 9.9826C28.7445 9.92004 28.7369 9.85809 28.7161 9.79797ZM23.6014 6.875H26.3992L27.2519 9.375H22.7487L23.6014 6.875ZM24.375 10.625V26.25H25.625V10.625H27.5V30H25.625V27.5H24.375V30H22.5V10.625H24.375ZM22.5 31.25H27.5V32.5H22.5V31.25ZM24.6661 3.75H25.3339L25.9726 5.625H24.0268L24.6661 3.75ZM22.5 36.25V33.75H27.5L27.5006 36.25H22.5Z" fill="white"/>
		</g>
	</svg>

	<svg viewBox="0 0 40 40" fill="none" xmlns="http://www.w3.org/2000/svg">
		<g id="portfolio" class="img">
			<path d="M37.9998 0H1.99979C0.862962 0.0362771 -0.0308755 0.98434 -0.000210579 2.12133V31.212C-0.0308755 32.349 0.862962 33.297 1.99979 33.3333H13.5878L12.2545 36H9.99979C8.89522 36 7.99979 36.8954 7.99979 38C7.99979 39.1046 8.89522 40 9.99979 40H29.9998C31.1044 40 31.9998 39.1046 31.9998 38C31.9998 36.8954 31.1044 36 29.9998 36H27.7451L26.4118 33.3333H37.9998C39.1366 33.297 40.0305 32.349 39.9998 31.212V2.12133C40.0305 0.98434 39.1366 0.0362771 37.9998 0V0ZM30.6665 38C30.6665 38.3682 30.368 38.6666 29.9998 38.6666H9.99979C9.6316 38.6666 9.33312 38.3682 9.33312 38C9.33312 37.6318 9.6316 37.3333 9.99979 37.3333H29.9998C30.368 37.3333 30.6665 37.6318 30.6665 38ZM26.2545 36H13.7451L15.0785 33.3333H24.9211L26.2545 36ZM37.9998 32H1.99979C1.60204 31.9589 1.30774 31.611 1.33312 31.212V29.3333H5.33312C5.70131 29.3333 5.99979 29.0348 5.99979 28.6667C5.99979 28.2985 5.70131 28 5.33312 28H1.33312V2.12133C1.30774 1.72228 1.60204 1.37441 1.99979 1.33333H37.9998C38.3975 1.37441 38.6918 1.72228 38.6665 2.12133V28H7.99979C7.6316 28 7.33312 28.2985 7.33312 28.6667C7.33312 29.0348 7.6316 29.3333 7.99979 29.3333H38.6665V31.212C38.6918 31.611 38.3975 31.9589 37.9998 32Z" fill="white"/>
			<path d="M10.0002 23.3333H30.0002C30.7365 23.3333 31.3335 22.7364 31.3335 22H35.3335C36.0699 22 36.6668 21.403 36.6668 20.6667V7.33333C36.6668 6.59695 36.0699 6 35.3335 6H31.3335V4.66667C31.3335 3.93029 30.7365 3.33333 30.0002 3.33333H10.0002C9.26378 3.33333 8.66683 3.93029 8.66683 4.66667V6H4.66683C3.93045 6 3.3335 6.59695 3.3335 7.33333V20.6667C3.3335 21.403 3.93045 22 4.66683 22H8.66683C8.66683 22.7364 9.26378 23.3333 10.0002 23.3333ZM10.0002 22V20.2347L17.3288 11.0727L24.1428 19.7453C24.2885 19.9371 24.5263 20.0354 24.7649 20.0025C25.0034 19.9696 25.2057 19.8105 25.294 19.5865C25.3823 19.3624 25.3428 19.1081 25.1908 18.9213L23.5028 16.7733L26.0002 14.276L30.0002 18.276V21.3333V21.3393V22H10.0002ZM35.3335 7.33333V20.6667H31.3335V7.33333H35.3335ZM10.0002 4.66667H30.0002V6.66666V16.3907L26.4715 12.862C26.2112 12.6017 25.7892 12.6017 25.5288 12.862L22.6735 15.7173L17.8575 9.588C17.7311 9.42724 17.538 9.33337 17.3335 9.33333C17.131 9.33326 16.9394 9.42524 16.8128 9.58333L10.0002 18.0987V4.66667ZM4.66683 20.6667V7.33333H8.66683V20.6667H4.66683Z" fill="white"/>
			<path d="M23.9997 11.3333C25.4724 11.3333 26.6663 10.1394 26.6663 8.66667C26.6663 7.19391 25.4724 6 23.9997 6C22.5269 6 21.333 7.19391 21.333 8.66667C21.333 10.1394 22.5269 11.3333 23.9997 11.3333ZM23.9997 7.33333C24.7361 7.33333 25.333 7.93029 25.333 8.66667C25.333 9.40305 24.7361 10 23.9997 10C23.2633 10 22.6663 9.40305 22.6663 8.66667C22.6663 7.93029 23.2633 7.33333 23.9997 7.33333Z" fill="white"/>
			<path d="M19.9997 26C20.3679 26 20.6663 25.7015 20.6663 25.3333C20.6663 24.9651 20.3679 24.6667 19.9997 24.6667C19.6315 24.6667 19.333 24.9651 19.333 25.3333C19.333 25.7015 19.6315 26 19.9997 26Z" fill="white"/>
			<path d="M22.6667 26C23.0349 26 23.3333 25.7015 23.3333 25.3333C23.3333 24.9651 23.0349 24.6667 22.6667 24.6667C22.2985 24.6667 22 24.9651 22 25.3333C22 25.7015 22.2985 26 22.6667 26Z" fill="white"/>
			<path d="M25.3332 26C25.7014 26 25.9998 25.7015 25.9998 25.3333C25.9998 24.9651 25.7014 24.6667 25.3332 24.6667C24.965 24.6667 24.6665 24.9651 24.6665 25.3333C24.6665 25.7015 24.965 26 25.3332 26Z" fill="white"/>
			<path d="M17.3332 26C17.7014 26 17.9998 25.7015 17.9998 25.3333C17.9998 24.9651 17.7014 24.6667 17.3332 24.6667C16.965 24.6667 16.6665 24.9651 16.6665 25.3333C16.6665 25.7015 16.965 26 17.3332 26Z" fill="white"/>
			<path d="M14.6667 26C15.0349 26 15.3333 25.7015 15.3333 25.3333C15.3333 24.9651 15.0349 24.6667 14.6667 24.6667C14.2985 24.6667 14 24.9651 14 25.3333C14 25.7015 14.2985 26 14.6667 26Z" fill="white"/>
		</g>
	</svg>

	<svg viewBox="0 0 40 40" fill="none" xmlns="http://www.w3.org/2000/svg">
		<g id="reviews" class="img">
			<path d="M9.67625 5.59672H8.25469C8.46852 4.01368 9.34383 3.93415 9.74664 3.8975C10.1491 3.86086 10.4571 3.52352 10.4571 3.11946V0.781565C10.4571 0.5668 10.3687 0.361409 10.2126 0.213831C10.0565 0.0662527 9.84633 -0.0102318 9.63203 0.00156513C7.1625 0.140471 4.21875 1.38735 4.21875 6.53876V10.6044C4.21875 11.2831 4.77086 11.8352 5.44953 11.8352H9.67633C10.355 11.8352 10.9071 11.283 10.907 10.6043V6.82751C10.907 6.14883 10.3549 5.59672 9.67625 5.59672ZM9.34461 10.2726H5.78125V6.53876C5.78125 2.94422 7.37977 1.94032 8.89461 1.65696V2.47836C7.84844 2.7968 6.64437 3.73727 6.64437 6.37797C6.64437 6.80946 6.99414 7.15922 7.42562 7.15922H9.34461V10.2726Z" fill="white"/>
			<path d="M17.6636 5.59672H16.242C16.4558 4.01368 17.3311 3.93415 17.7339 3.8975C18.1364 3.86086 18.4444 3.52352 18.4444 3.11946V0.781565C18.4444 0.5668 18.356 0.361409 18.1999 0.213831C18.0438 0.0662527 17.8335 -0.0102318 17.6193 0.00156513C15.1498 0.140471 12.2061 1.38735 12.2061 6.53876V10.6044C12.2061 11.2831 12.7582 11.8352 13.4368 11.8352H17.6636C18.3423 11.8352 18.8945 11.283 18.8944 10.6042V6.82751C18.8944 6.14883 18.3423 5.59672 17.6636 5.59672ZM17.3319 10.2727H13.7686V6.53876C13.7686 2.94422 15.3671 1.94032 16.8819 1.65696V2.47836C15.8357 2.7968 14.6317 3.73727 14.6317 6.37797C14.6317 6.80946 14.9814 7.15922 15.4129 7.15922H17.3319V10.2727Z" fill="white"/>
			<path d="M22.2711 6.31211C22.1258 6.1668 21.9242 6.0832 21.7188 6.0832C21.5133 6.0832 21.3117 6.1668 21.1664 6.31211C21.0211 6.45742 20.9375 6.65898 20.9375 6.86445C20.9375 7.06992 21.0211 7.27148 21.1664 7.4168C21.3117 7.56211 21.5133 7.6457 21.7188 7.6457C21.9242 7.6457 22.1258 7.56211 22.2711 7.4168C22.4164 7.27148 22.5 7.06992 22.5 6.86445C22.5 6.65898 22.4164 6.45742 22.2711 6.31211Z" fill="white"/>
			<path d="M26.1146 6.08313H25.1302C24.6987 6.08313 24.3489 6.43289 24.3489 6.86438C24.3489 7.29586 24.6987 7.64563 25.1302 7.64563H26.1146C32.9095 7.64563 38.4375 13.1737 38.4375 19.9685C38.4375 25.7679 34.3244 30.8398 28.6573 32.0283C28.2955 32.1042 28.0364 32.4233 28.0364 32.7929V37.3323L23.2244 32.5202C23.0779 32.3737 22.8791 32.2914 22.672 32.2914H13.8854C7.09055 32.2914 1.5625 26.7634 1.5625 19.9685C1.5625 17.8744 2.09711 15.8065 3.10859 13.9882C3.31844 13.6112 3.18273 13.1355 2.8057 12.9257C2.42859 12.7159 1.95289 12.8516 1.7432 13.2286C0.602734 15.2785 0 17.6091 0 19.9685C0 27.625 6.22891 33.8539 13.8854 33.8539H22.3484L28.2652 39.7708C28.4147 39.9202 28.6145 39.9996 28.8178 39.9996C28.9184 39.9996 29.02 39.9801 29.1166 39.9401C29.4085 39.8192 29.5989 39.5344 29.5989 39.2183V33.412C32.4257 32.6795 34.9817 31.0496 36.8495 28.7759C38.8811 26.3026 40 23.1748 40 19.9685C40 12.3121 33.7711 6.0832 26.1146 6.08313Z" fill="white"/>
			<path d="M29.6144 13.8666H10.3857C9.95426 13.8666 9.60449 14.2163 9.60449 14.6478C9.60449 15.0793 9.95426 15.4291 10.3857 15.4291H29.6143C30.0458 15.4291 30.3957 15.0793 30.3957 14.6478C30.3957 14.2163 30.0459 13.8666 29.6144 13.8666Z" fill="white"/>
			<path d="M29.6144 18.0332H10.3857C9.95426 18.0332 9.60449 18.383 9.60449 18.8145C9.60449 19.2459 9.95426 19.5957 10.3857 19.5957H29.6143C30.0458 19.5957 30.3957 19.2459 30.3957 18.8145C30.3957 18.383 30.0459 18.0332 29.6144 18.0332Z" fill="white"/>
			<path d="M29.6144 22.1998H10.3857C9.95426 22.1998 9.60449 22.5497 9.60449 22.9811C9.60449 23.4125 9.95426 23.7623 10.3857 23.7623H29.6143C30.0458 23.7623 30.3957 23.4125 30.3957 22.9811C30.3957 22.5497 30.0459 22.1998 29.6144 22.1998Z" fill="white"/>
			<path d="M29.6141 26.3666H19.3647C18.9333 26.3666 18.5835 26.7164 18.5835 27.1478C18.5835 27.5792 18.9333 27.9291 19.3647 27.9291H29.6141C30.0456 27.9291 30.3954 27.5792 30.3954 27.1478C30.3954 26.7164 30.0456 26.3666 29.6141 26.3666Z" fill="white"/>
			<path d="M14.9696 26.3665H14.957C14.5255 26.3665 14.1758 26.7163 14.1758 27.1477C14.1758 27.5791 14.5255 27.929 14.957 27.929H14.9696C15.4011 27.929 15.7509 27.5791 15.7509 27.1477C15.7509 26.7163 15.4011 26.3665 14.9696 26.3665Z" fill="white"/>
		</g>
	</svg>

	<svg viewBox="0 0 43 45" fill="none" xmlns="http://www.w3.org/2000/svg">
		<g id="blog" class="img">
			<path d="M3.83398 4.21875C4.22231 4.21875 4.53711 3.90395 4.53711 3.51562C4.53711 3.1273 4.22231 2.8125 3.83398 2.8125C3.44566 2.8125 3.13086 3.1273 3.13086 3.51562C3.13086 3.90395 3.44566 4.21875 3.83398 4.21875Z" fill="white"/>
			<path d="M6.03125 4.21875C6.41958 4.21875 6.73438 3.90395 6.73438 3.51562C6.73438 3.1273 6.41958 2.8125 6.03125 2.8125C5.64292 2.8125 5.32812 3.1273 5.32812 3.51562C5.32812 3.90395 5.64292 4.21875 6.03125 4.21875Z" fill="white"/>
			<path d="M8.14062 4.21875C8.52895 4.21875 8.84375 3.90395 8.84375 3.51562C8.84375 3.1273 8.52895 2.8125 8.14062 2.8125C7.7523 2.8125 7.4375 3.1273 7.4375 3.51562C7.4375 3.90395 7.7523 4.21875 8.14062 4.21875Z" fill="white"/>
			<path d="M16.5781 27.4219H3.21875C3.03227 27.4219 2.85343 27.496 2.72157 27.6278C2.5897 27.7597 2.51562 27.9385 2.51562 28.125C2.51562 28.3115 2.5897 28.4903 2.72157 28.6222C2.85343 28.754 3.03227 28.8281 3.21875 28.8281H16.5781C16.7646 28.8281 16.9434 28.754 17.0753 28.6222C17.2072 28.4903 17.2812 28.3115 17.2812 28.125C17.2812 27.9385 17.2072 27.7597 17.0753 27.6278C16.9434 27.496 16.7646 27.4219 16.5781 27.4219Z" fill="white"/>
			<path d="M16.5781 30.2344H3.21875C3.03227 30.2344 2.85343 30.3085 2.72157 30.4403C2.5897 30.5722 2.51562 30.751 2.51562 30.9375C2.51562 31.124 2.5897 31.3028 2.72157 31.4347C2.85343 31.5665 3.03227 31.6406 3.21875 31.6406H16.5781C16.7646 31.6406 16.9434 31.5665 17.0753 31.4347C17.2072 31.3028 17.2812 31.124 17.2812 30.9375C17.2812 30.751 17.2072 30.5722 17.0753 30.4403C16.9434 30.3085 16.7646 30.2344 16.5781 30.2344Z" fill="white"/>
			<path d="M16.5781 33.0469H3.21875C3.03227 33.0469 2.85343 33.121 2.72157 33.2528C2.5897 33.3847 2.51562 33.5635 2.51562 33.75C2.51562 33.9365 2.5897 34.1153 2.72157 34.2472C2.85343 34.379 3.03227 34.4531 3.21875 34.4531H16.5781C16.7646 34.4531 16.9434 34.379 17.0753 34.2472C17.2072 34.1153 17.2812 33.9365 17.2812 33.75C17.2812 33.5635 17.2072 33.3847 17.0753 33.2528C16.9434 33.121 16.7646 33.0469 16.5781 33.0469Z" fill="white"/>
			<path d="M25.0156 27.4219H19.3906C19.2041 27.4219 19.0253 27.496 18.8934 27.6278C18.7616 27.7597 18.6875 27.9385 18.6875 28.125C18.6875 28.3115 18.7616 28.4903 18.8934 28.6222C19.0253 28.754 19.2041 28.8281 19.3906 28.8281H25.0156C25.2021 28.8281 25.3809 28.754 25.5128 28.6222C25.6447 28.4903 25.7188 28.3115 25.7188 28.125C25.7188 27.9385 25.6447 27.7597 25.5128 27.6278C25.3809 27.496 25.2021 27.4219 25.0156 27.4219Z" fill="white"/>
			<path d="M25.0156 30.2344H19.3906C19.2041 30.2344 19.0253 30.3085 18.8934 30.4403C18.7616 30.5722 18.6875 30.751 18.6875 30.9375C18.6875 31.124 18.7616 31.3028 18.8934 31.4347C19.0253 31.5665 19.2041 31.6406 19.3906 31.6406H25.0156C25.2021 31.6406 25.3809 31.5665 25.5128 31.4347C25.6447 31.3028 25.7188 31.124 25.7188 30.9375C25.7188 30.751 25.6447 30.5722 25.5128 30.4403C25.3809 30.3085 25.2021 30.2344 25.0156 30.2344Z" fill="white"/>
			<path d="M8.84375 35.8594H3.21875C3.03227 35.8594 2.85343 35.9335 2.72157 36.0653C2.5897 36.1972 2.51562 36.376 2.51562 36.5625V39.375C2.51562 39.5615 2.5897 39.7403 2.72157 39.8722C2.85343 40.004 3.03227 40.0781 3.21875 40.0781H8.84375C9.03023 40.0781 9.20907 40.004 9.34093 39.8722C9.4728 39.7403 9.54688 39.5615 9.54688 39.375V36.5625C9.54688 36.376 9.4728 36.1972 9.34093 36.0653C9.20907 35.9335 9.03023 35.8594 8.84375 35.8594ZM8.14062 38.6719H3.92188V37.2656H8.14062V38.6719Z" fill="white"/>
			<path d="M16.5781 35.8594H10.9531C10.7666 35.8594 10.5878 35.9335 10.4559 36.0653C10.3241 36.1972 10.25 36.376 10.25 36.5625C10.25 36.749 10.3241 36.9278 10.4559 37.0597C10.5878 37.1915 10.7666 37.2656 10.9531 37.2656H16.5781C16.7646 37.2656 16.9434 37.1915 17.0753 37.0597C17.2072 36.9278 17.2812 36.749 17.2812 36.5625C17.2812 36.376 17.2072 36.1972 17.0753 36.0653C16.9434 35.9335 16.7646 35.8594 16.5781 35.8594Z" fill="white"/>
			<path d="M20.7969 33.0469H19.3906C19.2041 33.0469 19.0253 33.121 18.8934 33.2528C18.7616 33.3847 18.6875 33.5635 18.6875 33.75C18.6875 33.9365 18.7616 34.1153 18.8934 34.2472C19.0253 34.379 19.2041 34.4531 19.3906 34.4531H20.7969C20.9834 34.4531 21.1622 34.379 21.2941 34.2472C21.4259 34.1153 21.5 33.9365 21.5 33.75C21.5 33.5635 21.4259 33.3847 21.2941 33.2528C21.1622 33.121 20.9834 33.0469 20.7969 33.0469Z" fill="white"/>
			<path d="M22.9062 34.4531H23.6094C23.7959 34.4531 23.9747 34.379 24.1066 34.2472C24.2384 34.1153 24.3125 33.9365 24.3125 33.75C24.3125 33.5635 24.2384 33.3847 24.1066 33.2528C23.9747 33.121 23.7959 33.0469 23.6094 33.0469H22.9062C22.7198 33.0469 22.5409 33.121 22.4091 33.2528C22.2772 33.3847 22.2031 33.5635 22.2031 33.75C22.2031 33.9365 22.2772 34.1153 22.4091 34.2472C22.5409 34.379 22.7198 34.4531 22.9062 34.4531Z" fill="white"/>
			<path d="M41.9029 23.6584L40.908 22.6635C40.512 22.2688 39.9756 22.0472 39.4165 22.0472C38.8574 22.0472 38.321 22.2688 37.925 22.6635L35.5625 25.026V2.8125C35.5618 2.25329 35.3393 1.71719 34.9439 1.32177C34.5484 0.926345 34.0123 0.703869 33.4531 0.703125H2.51562C1.95641 0.703869 1.42032 0.926345 1.02489 1.32177C0.62947 1.71719 0.406994 2.25329 0.40625 2.8125V42.1875C0.406994 42.7467 0.62947 43.2828 1.02489 43.6782C1.42032 44.0737 1.95641 44.2961 2.51562 44.2969H33.4531C34.0123 44.2961 34.5484 44.0737 34.9439 43.6782C35.3393 43.2828 35.5618 42.7467 35.5625 42.1875V33.0469C35.5625 33.0258 35.5607 33.0056 35.559 32.9845L41.9029 26.6414C42.2976 26.2454 42.5192 25.709 42.5192 25.1499C42.5192 24.5908 42.2976 24.0544 41.9029 23.6584ZM1.8125 2.8125C1.81276 2.6261 1.88692 2.4474 2.01872 2.3156C2.15053 2.18379 2.32922 2.10963 2.51562 2.10938H33.4531C33.6395 2.10963 33.8182 2.18379 33.95 2.3156C34.0818 2.4474 34.156 2.6261 34.1562 2.8125V4.92188H1.8125V2.8125ZM34.1562 42.1875C34.156 42.3739 34.0818 42.5526 33.95 42.6844C33.8182 42.8162 33.6395 42.8904 33.4531 42.8906H2.51562C2.32922 42.8904 2.15053 42.8162 2.01872 42.6844C1.88692 42.5526 1.81276 42.3739 1.8125 42.1875V6.32812H34.1562V26.4322L23.01 37.5794C22.9022 37.6867 22.8322 37.8261 22.8104 37.9767L22.3139 41.4571C22.2995 41.5569 22.3068 41.6585 22.3352 41.7552C22.3636 41.8519 22.4125 41.9413 22.4785 42.0174C22.5446 42.0935 22.6262 42.1546 22.7179 42.1963C22.8096 42.2381 22.9092 42.2597 23.01 42.2596C23.0432 42.2598 23.0764 42.2575 23.1093 42.2525L26.5897 41.756C26.7403 41.7342 26.8797 41.6642 26.987 41.5564L34.1562 34.3881V42.1875ZM24.5015 38.0769L24.998 37.5794L26.987 39.5684L26.4895 40.0649L24.5015 38.0769ZM24.998 40.5624L23.8379 40.7285L24.004 39.5684L24.998 40.5624ZM27.9819 38.5734L25.993 36.5845L35.936 26.6414L37.925 28.6304L27.9819 38.5734ZM38.9199 27.6354L36.931 25.6465L37.4284 25.1499L39.4165 27.138L38.9199 27.6354ZM40.908 25.6465L40.4114 26.1439L38.4225 24.155L38.9199 23.6584C39.0518 23.5266 39.2305 23.4526 39.4169 23.4526C39.6033 23.4526 39.7821 23.5266 39.914 23.6584L40.908 24.6524C41.0398 24.7843 41.1138 24.9631 41.1138 25.1495C41.1138 25.3359 41.0398 25.5146 40.908 25.6465Z" fill="white"/>
			<path d="M3.21875 26.0156H32.75C32.9365 26.0156 33.1153 25.9415 33.2472 25.8097C33.379 25.6778 33.4531 25.499 33.4531 25.3125V9.84375C33.4531 9.65727 33.379 9.47843 33.2472 9.34657C33.1153 9.2147 32.9365 9.14062 32.75 9.14062H3.21875C3.03227 9.14062 2.85343 9.2147 2.72157 9.34657C2.5897 9.47843 2.51562 9.65727 2.51562 9.84375V25.3125C2.51562 25.499 2.5897 25.6778 2.72157 25.8097C2.85343 25.9415 3.03227 26.0156 3.21875 26.0156ZM9.54688 16.1719C9.36039 16.1719 9.18155 16.246 9.04969 16.3778C8.91783 16.5097 8.84375 16.6885 8.84375 16.875V18.8956C8.18094 18.7245 7.6033 18.3175 7.21911 17.7509C6.83491 17.1844 6.67054 16.4971 6.75679 15.818C6.84305 15.1389 7.17401 14.5146 7.68765 14.0621C8.20129 13.6096 8.86233 13.3599 9.54688 13.3599C10.2314 13.3599 10.8925 13.6096 11.4061 14.0621C11.9197 14.5146 12.2507 15.1389 12.337 15.818C12.4232 16.4971 12.2588 17.1844 11.8746 17.7509C11.4904 18.3175 10.9128 18.7245 10.25 18.8956V16.875C10.25 16.6885 10.1759 16.5097 10.0441 16.3778C9.9122 16.246 9.73336 16.1719 9.54688 16.1719ZM13.6399 24.6094L17.2812 18.8877L18.684 21.092C18.6866 21.0966 18.6895 21.101 18.6928 21.1052L20.9226 24.6094H13.6399ZM22.589 24.6094L20.114 20.7193L23.6094 14.8148L29.4075 24.6094H22.589ZM3.92188 10.5469H32.0469V24.6094H31.0414L24.2141 13.0772C24.152 12.972 24.0636 12.8848 23.9576 12.8243C23.8515 12.7637 23.7315 12.7318 23.6094 12.7318C23.4872 12.7318 23.3672 12.7637 23.2612 12.8243C23.1551 12.8848 23.0667 12.972 23.0047 13.0772L19.2676 19.3896L17.8745 17.2011C17.811 17.1013 17.7234 17.0191 17.6197 16.9621C17.5159 16.9052 17.3996 16.8753 17.2812 16.8753C17.1629 16.8753 17.0466 16.9052 16.9428 16.9621C16.8391 17.0191 16.7515 17.1013 16.688 17.2011L11.9735 24.6094H10.25V20.3309C11.293 20.1546 12.2317 19.5929 12.8801 18.7571C13.5285 17.9213 13.8393 16.8724 13.7508 15.8183C13.6624 14.7642 13.1812 13.7818 12.4025 13.0658C11.6239 12.3498 10.6047 11.9524 9.54688 11.9524C8.48907 11.9524 7.46986 12.3498 6.69122 13.0658C5.91259 13.7818 5.43136 14.7642 5.3429 15.8183C5.25444 16.8724 5.56521 17.9213 6.21361 18.7571C6.86201 19.5929 7.80074 20.1546 8.84375 20.3309V21.8892L7.82773 21.2115C7.75086 21.1603 7.66465 21.1247 7.57403 21.1067C7.4834 21.0888 7.39012 21.0889 7.29953 21.107C7.20894 21.1251 7.1228 21.1609 7.04604 21.2123C6.96928 21.2637 6.90339 21.3298 6.85215 21.4066C6.8009 21.4835 6.7653 21.5697 6.74737 21.6603C6.72944 21.751 6.72954 21.8443 6.74766 21.9348C6.76577 22.0254 6.80156 22.1116 6.85297 22.1883C6.90437 22.2651 6.9704 22.331 7.04727 22.3822L8.84375 23.5793V24.6094H3.92188V10.5469Z" fill="white"/>
			<path d="M29.473 34.0989C29.3412 34.2308 29.2671 34.4096 29.2671 34.5961C29.2671 34.7826 29.3412 34.9615 29.473 35.0933C29.6049 35.2252 29.7837 35.2993 29.9702 35.2993C30.1567 35.2993 30.3356 35.2252 30.4674 35.0933L36.4336 29.127C36.5617 28.9943 36.6326 28.8167 36.631 28.6324C36.6294 28.448 36.5554 28.2717 36.4251 28.1413C36.2947 28.0109 36.1183 27.937 35.934 27.9354C35.7496 27.9338 35.572 28.0047 35.4394 28.1327L29.473 34.0989Z" fill="white"/>
		</g>
	</svg>

	<svg viewBox="0 0 40 40" fill="none" xmlns="http://www.w3.org/2000/svg">
		<g id="contacts" class="img">
			<path d="M37.3333 6.66677H13.6666L12.1333 1.5941C11.7703 0.412605 10.524 -0.256633 9.3386 0.093437L5.94326 1.09344C5.56923 1.20407 5.23007 1.40936 4.9586 1.68944L1.13326 5.65143C0.845627 5.95204 0.647139 6.32663 0.559931 6.73343C0.169932 8.53343 -0.906735 15.0588 1.6466 23.5001C4.19993 31.9414 8.71326 36.8174 10.0399 38.1101C10.3372 38.4019 10.7093 38.6059 11.1153 38.6994L16.5106 39.9441C16.6774 39.9826 16.8481 40.0021 17.0193 40.0021C17.2368 40.0019 17.4532 39.9707 17.6619 39.9094L19.5406 39.3554L21.0546 38.9088C21.631 38.7427 22.116 38.3511 22.3999 37.8228C22.6828 37.3033 22.745 36.6919 22.5726 36.1261L21.7279 33.3334H37.3333C38.806 33.3334 39.9999 32.1395 39.9999 30.6668V9.33343C39.9999 7.86067 38.806 6.66677 37.3333 6.66677ZM26.8333 19.8001L38.5846 8.88943C38.6374 9.03156 38.6652 9.1818 38.6666 9.33343V30.6668C38.6647 30.8096 38.6397 30.9512 38.5926 31.0861L26.8333 19.8001ZM37.3333 8.0001C37.4089 8.00121 37.4843 8.00879 37.5586 8.02277L23.5999 20.9788C23.0885 21.4531 22.298 21.4531 21.7866 20.9788L12.1866 12.0914L12.8939 11.8828C13.4692 11.7155 13.9532 11.3242 14.2373 10.7968C14.5198 10.2776 14.5815 9.66662 14.4086 9.10143L14.0733 8.0001H37.3333ZM10.4893 27.4874C9.11291 25.8025 8.0895 23.8579 7.47993 21.7694C6.61889 19.1378 6.50146 16.3195 7.1406 13.6254C7.15436 13.5891 7.18495 13.5617 7.2226 13.5521L10.6939 12.5288L18.5233 19.7741L10.4893 27.4874ZM21.2226 37.1881C21.107 37.4023 20.9099 37.561 20.6759 37.6281L19.7919 37.8888L18.1686 32.5168C18.1031 32.2847 17.9173 32.1062 17.6829 32.0498C17.4485 31.9934 17.2019 32.068 17.038 32.2449C16.8741 32.4217 16.8185 32.6733 16.8926 32.9028L18.5166 38.2668L17.2859 38.6294C17.1312 38.6754 16.9672 38.6804 16.8099 38.6441L11.4146 37.4001C11.2474 37.361 11.0942 37.2766 10.9719 37.1561C9.70526 35.9194 5.3806 31.2508 2.9226 23.1148C0.464598 14.9788 1.48993 8.73343 1.8626 7.01477C1.89844 6.84983 1.9792 6.69801 2.09593 6.5761L5.91726 2.6161C6.02749 2.50185 6.16523 2.41783 6.31726 2.3721L7.55793 2.00677L9.18126 7.3781C9.2662 7.65946 9.52536 7.852 9.81926 7.8521C9.88457 7.85243 9.94955 7.84276 10.0119 7.82343C10.3642 7.71693 10.5635 7.34511 10.4573 6.99277L8.83926 1.6301L9.71526 1.3721C10.1992 1.22624 10.7103 1.49712 10.8613 1.97944L13.1279 9.4861C13.1975 9.71123 13.1735 9.9549 13.0613 10.1621C12.9453 10.3762 12.7484 10.5349 12.5146 10.6028L11.6299 10.8634L11.3679 9.99677C11.2547 9.65327 10.8883 9.46269 10.542 9.56725C10.1958 9.67181 9.9961 10.0334 10.0919 10.3821L10.3513 11.2408L6.84593 12.2741C6.36536 12.4145 5.99083 12.7923 5.8546 13.2741C5.15138 16.2092 5.2725 19.2815 6.2046 22.1521C7.02319 25.0658 8.62531 27.6991 10.8366 29.7654C11.2126 30.097 11.7334 30.2105 12.2133 30.0654L15.7273 29.0294L15.9893 29.8961C16.0548 30.1281 16.2405 30.3067 16.475 30.3631C16.7094 30.4194 16.956 30.3448 17.1198 30.168C17.2837 29.9911 17.3393 29.7395 17.2653 29.5101L17.0059 28.6514L17.8813 28.3934C18.3652 28.2487 18.8758 28.5191 19.0279 29.0008L21.2946 36.5081C21.3647 36.7347 21.3399 36.9801 21.2259 37.1881H21.2226ZM21.3246 32.0001L20.3033 28.6194C19.9397 27.4357 18.6902 26.7661 17.5033 27.1188L11.8366 28.7894C11.7959 28.8016 11.7518 28.7937 11.7179 28.7681C11.6246 28.6861 11.5179 28.5841 11.3946 28.4681L19.5039 20.6814L20.8799 21.9554C21.9047 22.9003 23.4832 22.9003 24.5079 21.9554L25.8546 20.7048L37.5926 31.9714C37.5073 31.9895 37.4204 31.9991 37.3333 32.0001H21.3246Z" fill="white"/>
			<path d="M17.3337 10.6667H28.0003C28.3685 10.6667 28.667 10.3682 28.667 10C28.667 9.63182 28.3685 9.33334 28.0003 9.33334H17.3337C16.9655 9.33334 16.667 9.63182 16.667 10C16.667 10.3682 16.9655 10.6667 17.3337 10.6667Z" fill="white"/>
			<path d="M36.6667 14.6667C36.2985 14.6667 36 14.9651 36 15.3333V24.6667C36 25.0348 36.2985 25.3333 36.6667 25.3333C37.0348 25.3333 37.3333 25.0348 37.3333 24.6667V15.3333C37.3333 14.9651 37.0348 14.6667 36.6667 14.6667Z" fill="white"/>
		</g>
	</svg>


































		<svg enable-background="new 0 0 24 24" viewBox="0 0 24 24" xmlns="http://www.w3.org/2000/svg">
			<g id="telegram" class="img">
				<path d="m9.417 15.181-.397 5.584c.568 0 .814-.244 1.109-.537l2.663-2.545 5.518 4.041c1.012.564 1.725.267 1.998-.931l3.622-16.972.001-.001c.321-1.496-.541-2.081-1.527-1.714l-21.29 8.151c-1.453.564-1.431 1.374-.247 1.741l5.443 1.693 12.643-7.911c.595-.394 1.136-.176.691.218z" fill="#577BF9" />
			</g>
		</svg>

		<svg enable-background="new 0 0 24 24" viewBox="0 0 24 24" xmlns="http://www.w3.org/2000/svg">
			<g id="telegram-hover" class="img">
				<path d="m9.417 15.181-.397 5.584c.568 0 .814-.244 1.109-.537l2.663-2.545 5.518 4.041c1.012.564 1.725.267 1.998-.931l3.622-16.972.001-.001c.321-1.496-.541-2.081-1.527-1.714l-21.29 8.151c-1.453.564-1.431 1.374-.247 1.741l5.443 1.693 12.643-7.911c.595-.394 1.136-.176.691.218z" fill="#fff" />
			</g>
		</svg>

		<svg xmlns="http://www.w3.org/2000/svg" xmlns:xlink="http://www.w3.org/1999/xlink"  viewBox="0 0 512 512" style="enable-background:new 0 0 512 512;" xml:space="preserve">
			<g id="skype" class="img">
				<path style="fill:#577BF9;" d="M502.912,258.656c0-132.96-109.312-240.768-244.192-240.768c-14.208,0-28.16,1.216-41.76,3.52
				C195.136,7.872,169.312,0,141.632,0C63.392,0,0,62.496,0,139.648c0,25.76,7.104,49.856,19.456,70.624
				c-3.232,15.616-4.96,31.84-4.96,48.384c0,132.992,109.344,240.8,244.192,240.8c15.296,0,30.208-1.408,44.736-4.032
				C323.392,505.984,346.144,512,370.4,512c78.208,0,141.6-62.528,141.6-139.616c0-22.272-5.312-43.328-14.72-62.016
				C500.992,293.664,502.912,276.416,502.912,258.656z" />
				<path style="fill:#fff;" d="M383.968,373.728c-11.296,15.776-27.968,28.256-49.632,37.088
				c-21.408,8.768-47.04,13.28-76.288,13.28c-35.072,0-64.48-6.08-87.456-18.112c-16.416-8.736-29.92-20.544-40.192-35.2
				c-10.4-14.72-15.616-29.344-15.616-43.52c0-8.768,3.424-16.448,10.176-22.688c6.688-6.24,15.264-9.344,25.504-9.344
				c8.384,0,15.616,2.464,21.504,7.36c5.6,4.736,10.432,11.712,14.304,20.64c4.32,9.792,9.024,18.048,13.984,24.48
				c4.832,6.304,11.712,11.552,20.512,15.68c8.864,4.096,20.8,6.24,35.456,6.24c20.192,0,36.768-4.288,49.184-12.64
				c12.192-8.16,18.08-18.016,18.08-30.048c0-9.472-3.104-16.96-9.408-22.816c-6.656-6.144-15.424-10.912-26.048-14.208
				c-11.104-3.392-26.176-7.104-44.8-10.944c-25.376-5.344-46.912-11.648-64-18.88c-17.504-7.36-31.648-17.536-41.952-30.24
				c-10.496-12.992-15.808-29.216-15.808-48.288c0-18.176,5.568-34.56,16.576-48.704c10.912-14.048,26.848-25.024,47.424-32.48
				c20.256-7.392,44.352-11.104,71.648-11.104c21.792,0,40.96,2.496,56.992,7.424c16.096,4.928,29.664,11.584,40.32,19.808
				c10.752,8.32,18.752,17.12,23.744,26.336c5.056,9.28,7.648,18.528,7.648,27.456c0,8.608-3.36,16.448-10.016,23.232
				c-6.72,6.848-15.168,10.304-25.088,10.304c-9.024,0-16.128-2.208-21.024-6.464c-4.576-4-9.344-10.24-14.592-19.136
				c-6.08-11.392-13.472-20.384-21.92-26.752c-8.224-6.176-21.92-9.248-40.8-9.248c-17.472,0-31.744,3.456-42.304,10.304
				c-10.176,6.56-15.136,14.112-15.136,23.072c0,5.472,1.6,10.048,4.896,13.984c3.456,4.224,8.352,7.84,14.56,10.912
				c6.4,3.168,13.024,5.728,19.648,7.52c6.784,1.856,18.144,4.64,33.792,8.192c19.776,4.16,37.92,8.864,53.984,13.952
				c16.288,5.088,30.304,11.392,41.824,18.784c11.68,7.52,20.928,17.12,27.52,28.64c6.592,11.616,9.92,25.856,9.92,42.432
				C401.056,339.84,395.296,357.92,383.968,373.728z" />
			</g>
		</svg>

		<svg xmlns="http://www.w3.org/2000/svg" xmlns:xlink="http://www.w3.org/1999/xlink"  viewBox="0 0 512 512" style="enable-background:new 0 0 512 512;" xml:space="preserve">
			<g id="skype-hover" class="img">
				<path style="fill:#fff;" d="M502.912,258.656c0-132.96-109.312-240.768-244.192-240.768c-14.208,0-28.16,1.216-41.76,3.52
				C195.136,7.872,169.312,0,141.632,0C63.392,0,0,62.496,0,139.648c0,25.76,7.104,49.856,19.456,70.624
				c-3.232,15.616-4.96,31.84-4.96,48.384c0,132.992,109.344,240.8,244.192,240.8c15.296,0,30.208-1.408,44.736-4.032
				C323.392,505.984,346.144,512,370.4,512c78.208,0,141.6-62.528,141.6-139.616c0-22.272-5.312-43.328-14.72-62.016
				C500.992,293.664,502.912,276.416,502.912,258.656z" />
				<path style="fill:#577BF9;" d="M383.968,373.728c-11.296,15.776-27.968,28.256-49.632,37.088
				c-21.408,8.768-47.04,13.28-76.288,13.28c-35.072,0-64.48-6.08-87.456-18.112c-16.416-8.736-29.92-20.544-40.192-35.2
				c-10.4-14.72-15.616-29.344-15.616-43.52c0-8.768,3.424-16.448,10.176-22.688c6.688-6.24,15.264-9.344,25.504-9.344
				c8.384,0,15.616,2.464,21.504,7.36c5.6,4.736,10.432,11.712,14.304,20.64c4.32,9.792,9.024,18.048,13.984,24.48
				c4.832,6.304,11.712,11.552,20.512,15.68c8.864,4.096,20.8,6.24,35.456,6.24c20.192,0,36.768-4.288,49.184-12.64
				c12.192-8.16,18.08-18.016,18.08-30.048c0-9.472-3.104-16.96-9.408-22.816c-6.656-6.144-15.424-10.912-26.048-14.208
				c-11.104-3.392-26.176-7.104-44.8-10.944c-25.376-5.344-46.912-11.648-64-18.88c-17.504-7.36-31.648-17.536-41.952-30.24
				c-10.496-12.992-15.808-29.216-15.808-48.288c0-18.176,5.568-34.56,16.576-48.704c10.912-14.048,26.848-25.024,47.424-32.48
				c20.256-7.392,44.352-11.104,71.648-11.104c21.792,0,40.96,2.496,56.992,7.424c16.096,4.928,29.664,11.584,40.32,19.808
				c10.752,8.32,18.752,17.12,23.744,26.336c5.056,9.28,7.648,18.528,7.648,27.456c0,8.608-3.36,16.448-10.016,23.232
				c-6.72,6.848-15.168,10.304-25.088,10.304c-9.024,0-16.128-2.208-21.024-6.464c-4.576-4-9.344-10.24-14.592-19.136
				c-6.08-11.392-13.472-20.384-21.92-26.752c-8.224-6.176-21.92-9.248-40.8-9.248c-17.472,0-31.744,3.456-42.304,10.304
				c-10.176,6.56-15.136,14.112-15.136,23.072c0,5.472,1.6,10.048,4.896,13.984c3.456,4.224,8.352,7.84,14.56,10.912
				c6.4,3.168,13.024,5.728,19.648,7.52c6.784,1.856,18.144,4.64,33.792,8.192c19.776,4.16,37.92,8.864,53.984,13.952
				c16.288,5.088,30.304,11.392,41.824,18.784c11.68,7.52,20.928,17.12,27.52,28.64c6.592,11.616,9.92,25.856,9.92,42.432
				C401.056,339.84,395.296,357.92,383.968,373.728z" />
			</g>
		</svg>

		<svg version="1.1" xmlns="http://www.w3.org/2000/svg" xmlns:xlink="http://www.w3.org/1999/xlink" viewBox="0 0 512 512" style="enable-background:new 0 0 512 512;" xml:space="preserve">
			<g id="whatsapp" class="img">
			<path style="fill:#577BF9;" d="M256.064,0h-0.128l0,0C114.784,0,0,114.816,0,256c0,56,18.048,107.904,48.736,150.048l-31.904,95.104
				l98.4-31.456C155.712,496.512,204,512,256.064,512C397.216,512,512,397.152,512,256S397.216,0,256.064,0z"/>
			<path style="fill:#fff;" d="M405.024,361.504c-6.176,17.44-30.688,31.904-50.24,36.128c-13.376,2.848-30.848,5.12-89.664-19.264
				C189.888,347.2,141.44,270.752,137.664,265.792c-3.616-4.96-30.4-40.48-30.4-77.216s18.656-54.624,26.176-62.304
				c6.176-6.304,16.384-9.184,26.176-9.184c3.168,0,6.016,0.16,8.576,0.288c7.52,0.32,11.296,0.768,16.256,12.64
				c6.176,14.88,21.216,51.616,23.008,55.392c1.824,3.776,3.648,8.896,1.088,13.856c-2.4,5.12-4.512,7.392-8.288,11.744
				c-3.776,4.352-7.36,7.68-11.136,12.352c-3.456,4.064-7.36,8.416-3.008,15.936c4.352,7.36,19.392,31.904,41.536,51.616
				c28.576,25.44,51.744,33.568,60.032,37.024c6.176,2.56,13.536,1.952,18.048-2.848c5.728-6.176,12.8-16.416,20-26.496
				c5.12-7.232,11.584-8.128,18.368-5.568c6.912,2.4,43.488,20.48,51.008,24.224c7.52,3.776,12.48,5.568,14.304,8.736
				C411.2,329.152,411.2,344.032,405.024,361.504z"/>
			</g>
		</svg>
		<svg version="1.1" xmlns="http://www.w3.org/2000/svg" xmlns:xlink="http://www.w3.org/1999/xlink" viewBox="0 0 512 512" style="enable-background:new 0 0 512 512;" xml:space="preserve">
			<g id="whatsapp-hover" class="img">
			<path style="fill:#fff;" d="M256.064,0h-0.128l0,0C114.784,0,0,114.816,0,256c0,56,18.048,107.904,48.736,150.048l-31.904,95.104
				l98.4-31.456C155.712,496.512,204,512,256.064,512C397.216,512,512,397.152,512,256S397.216,0,256.064,0z"/>
			<path style="fill:#577BF9;" d="M405.024,361.504c-6.176,17.44-30.688,31.904-50.24,36.128c-13.376,2.848-30.848,5.12-89.664-19.264
				C189.888,347.2,141.44,270.752,137.664,265.792c-3.616-4.96-30.4-40.48-30.4-77.216s18.656-54.624,26.176-62.304
				c6.176-6.304,16.384-9.184,26.176-9.184c3.168,0,6.016,0.16,8.576,0.288c7.52,0.32,11.296,0.768,16.256,12.64
				c6.176,14.88,21.216,51.616,23.008,55.392c1.824,3.776,3.648,8.896,1.088,13.856c-2.4,5.12-4.512,7.392-8.288,11.744
				c-3.776,4.352-7.36,7.68-11.136,12.352c-3.456,4.064-7.36,8.416-3.008,15.936c4.352,7.36,19.392,31.904,41.536,51.616
				c28.576,25.44,51.744,33.568,60.032,37.024c6.176,2.56,13.536,1.952,18.048-2.848c5.728-6.176,12.8-16.416,20-26.496
				c5.12-7.232,11.584-8.128,18.368-5.568c6.912,2.4,43.488,20.48,51.008,24.224c7.52,3.776,12.48,5.568,14.304,8.736
				C411.2,329.152,411.2,344.032,405.024,361.504z"/>
			</g>
		</svg>




</svg>