<svg xmlns="http://www.w3.org/2000/svg">
    <defs>
        <style>
        .img { display: none }
        .img:target { display: inline }
        </style>
    </defs>

    <svg viewBox="0 0 16 16">
        <g id="chart" class="img">
            <rect x="6" width="4" height="16"/>
            <rect x="12" y="4" width="4" height="12"/>
            <rect x="0" y="8" width="4" height="8"/>
        </g>
    </svg>

		<svg enable-background="new 0 0 24 24" viewBox="0 0 24 24" xmlns="http://www.w3.org/2000/svg">
			<g id="telegram" class="img">
				<path d="m9.417 15.181-.397 5.584c.568 0 .814-.244 1.109-.537l2.663-2.545 5.518 4.041c1.012.564 1.725.267 1.998-.931l3.622-16.972.001-.001c.321-1.496-.541-2.081-1.527-1.714l-21.29 8.151c-1.453.564-1.431 1.374-.247 1.741l5.443 1.693 12.643-7.911c.595-.394 1.136-.176.691.218z" fill="#577BF9" />
			</g>
		</svg>

		<svg enable-background="new 0 0 24 24" viewBox="0 0 24 24" xmlns="http://www.w3.org/2000/svg">
			<g id="telegram-hover" class="img">
				<path d="m9.417 15.181-.397 5.584c.568 0 .814-.244 1.109-.537l2.663-2.545 5.518 4.041c1.012.564 1.725.267 1.998-.931l3.622-16.972.001-.001c.321-1.496-.541-2.081-1.527-1.714l-21.29 8.151c-1.453.564-1.431 1.374-.247 1.741l5.443 1.693 12.643-7.911c.595-.394 1.136-.176.691.218z" fill="#fff" />
			</g>
		</svg>

		<svg xmlns="http://www.w3.org/2000/svg" xmlns:xlink="http://www.w3.org/1999/xlink"  viewBox="0 0 512 512" style="enable-background:new 0 0 512 512;" xml:space="preserve">
			<g id="skype" class="img">
				<path style="fill:#577BF9;" d="M502.912,258.656c0-132.96-109.312-240.768-244.192-240.768c-14.208,0-28.16,1.216-41.76,3.52
				C195.136,7.872,169.312,0,141.632,0C63.392,0,0,62.496,0,139.648c0,25.76,7.104,49.856,19.456,70.624
				c-3.232,15.616-4.96,31.84-4.96,48.384c0,132.992,109.344,240.8,244.192,240.8c15.296,0,30.208-1.408,44.736-4.032
				C323.392,505.984,346.144,512,370.4,512c78.208,0,141.6-62.528,141.6-139.616c0-22.272-5.312-43.328-14.72-62.016
				C500.992,293.664,502.912,276.416,502.912,258.656z" />
				<path style="fill:#fff;" d="M383.968,373.728c-11.296,15.776-27.968,28.256-49.632,37.088
				c-21.408,8.768-47.04,13.28-76.288,13.28c-35.072,0-64.48-6.08-87.456-18.112c-16.416-8.736-29.92-20.544-40.192-35.2
				c-10.4-14.72-15.616-29.344-15.616-43.52c0-8.768,3.424-16.448,10.176-22.688c6.688-6.24,15.264-9.344,25.504-9.344
				c8.384,0,15.616,2.464,21.504,7.36c5.6,4.736,10.432,11.712,14.304,20.64c4.32,9.792,9.024,18.048,13.984,24.48
				c4.832,6.304,11.712,11.552,20.512,15.68c8.864,4.096,20.8,6.24,35.456,6.24c20.192,0,36.768-4.288,49.184-12.64
				c12.192-8.16,18.08-18.016,18.08-30.048c0-9.472-3.104-16.96-9.408-22.816c-6.656-6.144-15.424-10.912-26.048-14.208
				c-11.104-3.392-26.176-7.104-44.8-10.944c-25.376-5.344-46.912-11.648-64-18.88c-17.504-7.36-31.648-17.536-41.952-30.24
				c-10.496-12.992-15.808-29.216-15.808-48.288c0-18.176,5.568-34.56,16.576-48.704c10.912-14.048,26.848-25.024,47.424-32.48
				c20.256-7.392,44.352-11.104,71.648-11.104c21.792,0,40.96,2.496,56.992,7.424c16.096,4.928,29.664,11.584,40.32,19.808
				c10.752,8.32,18.752,17.12,23.744,26.336c5.056,9.28,7.648,18.528,7.648,27.456c0,8.608-3.36,16.448-10.016,23.232
				c-6.72,6.848-15.168,10.304-25.088,10.304c-9.024,0-16.128-2.208-21.024-6.464c-4.576-4-9.344-10.24-14.592-19.136
				c-6.08-11.392-13.472-20.384-21.92-26.752c-8.224-6.176-21.92-9.248-40.8-9.248c-17.472,0-31.744,3.456-42.304,10.304
				c-10.176,6.56-15.136,14.112-15.136,23.072c0,5.472,1.6,10.048,4.896,13.984c3.456,4.224,8.352,7.84,14.56,10.912
				c6.4,3.168,13.024,5.728,19.648,7.52c6.784,1.856,18.144,4.64,33.792,8.192c19.776,4.16,37.92,8.864,53.984,13.952
				c16.288,5.088,30.304,11.392,41.824,18.784c11.68,7.52,20.928,17.12,27.52,28.64c6.592,11.616,9.92,25.856,9.92,42.432
				C401.056,339.84,395.296,357.92,383.968,373.728z" />
			</g>
		</svg>

		<svg xmlns="http://www.w3.org/2000/svg" xmlns:xlink="http://www.w3.org/1999/xlink"  viewBox="0 0 512 512" style="enable-background:new 0 0 512 512;" xml:space="preserve">
			<g id="skype-hover" class="img">
				<path style="fill:#fff;" d="M502.912,258.656c0-132.96-109.312-240.768-244.192-240.768c-14.208,0-28.16,1.216-41.76,3.52
				C195.136,7.872,169.312,0,141.632,0C63.392,0,0,62.496,0,139.648c0,25.76,7.104,49.856,19.456,70.624
				c-3.232,15.616-4.96,31.84-4.96,48.384c0,132.992,109.344,240.8,244.192,240.8c15.296,0,30.208-1.408,44.736-4.032
				C323.392,505.984,346.144,512,370.4,512c78.208,0,141.6-62.528,141.6-139.616c0-22.272-5.312-43.328-14.72-62.016
				C500.992,293.664,502.912,276.416,502.912,258.656z" />
				<path style="fill:#577BF9;" d="M383.968,373.728c-11.296,15.776-27.968,28.256-49.632,37.088
				c-21.408,8.768-47.04,13.28-76.288,13.28c-35.072,0-64.48-6.08-87.456-18.112c-16.416-8.736-29.92-20.544-40.192-35.2
				c-10.4-14.72-15.616-29.344-15.616-43.52c0-8.768,3.424-16.448,10.176-22.688c6.688-6.24,15.264-9.344,25.504-9.344
				c8.384,0,15.616,2.464,21.504,7.36c5.6,4.736,10.432,11.712,14.304,20.64c4.32,9.792,9.024,18.048,13.984,24.48
				c4.832,6.304,11.712,11.552,20.512,15.68c8.864,4.096,20.8,6.24,35.456,6.24c20.192,0,36.768-4.288,49.184-12.64
				c12.192-8.16,18.08-18.016,18.08-30.048c0-9.472-3.104-16.96-9.408-22.816c-6.656-6.144-15.424-10.912-26.048-14.208
				c-11.104-3.392-26.176-7.104-44.8-10.944c-25.376-5.344-46.912-11.648-64-18.88c-17.504-7.36-31.648-17.536-41.952-30.24
				c-10.496-12.992-15.808-29.216-15.808-48.288c0-18.176,5.568-34.56,16.576-48.704c10.912-14.048,26.848-25.024,47.424-32.48
				c20.256-7.392,44.352-11.104,71.648-11.104c21.792,0,40.96,2.496,56.992,7.424c16.096,4.928,29.664,11.584,40.32,19.808
				c10.752,8.32,18.752,17.12,23.744,26.336c5.056,9.28,7.648,18.528,7.648,27.456c0,8.608-3.36,16.448-10.016,23.232
				c-6.72,6.848-15.168,10.304-25.088,10.304c-9.024,0-16.128-2.208-21.024-6.464c-4.576-4-9.344-10.24-14.592-19.136
				c-6.08-11.392-13.472-20.384-21.92-26.752c-8.224-6.176-21.92-9.248-40.8-9.248c-17.472,0-31.744,3.456-42.304,10.304
				c-10.176,6.56-15.136,14.112-15.136,23.072c0,5.472,1.6,10.048,4.896,13.984c3.456,4.224,8.352,7.84,14.56,10.912
				c6.4,3.168,13.024,5.728,19.648,7.52c6.784,1.856,18.144,4.64,33.792,8.192c19.776,4.16,37.92,8.864,53.984,13.952
				c16.288,5.088,30.304,11.392,41.824,18.784c11.68,7.52,20.928,17.12,27.52,28.64c6.592,11.616,9.92,25.856,9.92,42.432
				C401.056,339.84,395.296,357.92,383.968,373.728z" />
			</g>
		</svg>

		<svg version="1.1" xmlns="http://www.w3.org/2000/svg" xmlns:xlink="http://www.w3.org/1999/xlink" viewBox="0 0 512 512" style="enable-background:new 0 0 512 512;" xml:space="preserve">
			<g id="whatsapp" class="img">
			<path style="fill:#577BF9;" d="M256.064,0h-0.128l0,0C114.784,0,0,114.816,0,256c0,56,18.048,107.904,48.736,150.048l-31.904,95.104
				l98.4-31.456C155.712,496.512,204,512,256.064,512C397.216,512,512,397.152,512,256S397.216,0,256.064,0z"/>
			<path style="fill:#fff;" d="M405.024,361.504c-6.176,17.44-30.688,31.904-50.24,36.128c-13.376,2.848-30.848,5.12-89.664-19.264
				C189.888,347.2,141.44,270.752,137.664,265.792c-3.616-4.96-30.4-40.48-30.4-77.216s18.656-54.624,26.176-62.304
				c6.176-6.304,16.384-9.184,26.176-9.184c3.168,0,6.016,0.16,8.576,0.288c7.52,0.32,11.296,0.768,16.256,12.64
				c6.176,14.88,21.216,51.616,23.008,55.392c1.824,3.776,3.648,8.896,1.088,13.856c-2.4,5.12-4.512,7.392-8.288,11.744
				c-3.776,4.352-7.36,7.68-11.136,12.352c-3.456,4.064-7.36,8.416-3.008,15.936c4.352,7.36,19.392,31.904,41.536,51.616
				c28.576,25.44,51.744,33.568,60.032,37.024c6.176,2.56,13.536,1.952,18.048-2.848c5.728-6.176,12.8-16.416,20-26.496
				c5.12-7.232,11.584-8.128,18.368-5.568c6.912,2.4,43.488,20.48,51.008,24.224c7.52,3.776,12.48,5.568,14.304,8.736
				C411.2,329.152,411.2,344.032,405.024,361.504z"/>
			</g>
		</svg>
		<svg version="1.1" xmlns="http://www.w3.org/2000/svg" xmlns:xlink="http://www.w3.org/1999/xlink" viewBox="0 0 512 512" style="enable-background:new 0 0 512 512;" xml:space="preserve">
			<g id="whatsapp-hover" class="img">
			<path style="fill:#fff;" d="M256.064,0h-0.128l0,0C114.784,0,0,114.816,0,256c0,56,18.048,107.904,48.736,150.048l-31.904,95.104
				l98.4-31.456C155.712,496.512,204,512,256.064,512C397.216,512,512,397.152,512,256S397.216,0,256.064,0z"/>
			<path style="fill:#577BF9;" d="M405.024,361.504c-6.176,17.44-30.688,31.904-50.24,36.128c-13.376,2.848-30.848,5.12-89.664-19.264
				C189.888,347.2,141.44,270.752,137.664,265.792c-3.616-4.96-30.4-40.48-30.4-77.216s18.656-54.624,26.176-62.304
				c6.176-6.304,16.384-9.184,26.176-9.184c3.168,0,6.016,0.16,8.576,0.288c7.52,0.32,11.296,0.768,16.256,12.64
				c6.176,14.88,21.216,51.616,23.008,55.392c1.824,3.776,3.648,8.896,1.088,13.856c-2.4,5.12-4.512,7.392-8.288,11.744
				c-3.776,4.352-7.36,7.68-11.136,12.352c-3.456,4.064-7.36,8.416-3.008,15.936c4.352,7.36,19.392,31.904,41.536,51.616
				c28.576,25.44,51.744,33.568,60.032,37.024c6.176,2.56,13.536,1.952,18.048-2.848c5.728-6.176,12.8-16.416,20-26.496
				c5.12-7.232,11.584-8.128,18.368-5.568c6.912,2.4,43.488,20.48,51.008,24.224c7.52,3.776,12.48,5.568,14.304,8.736
				C411.2,329.152,411.2,344.032,405.024,361.504z"/>
			</g>
		</svg>




</svg>